# xmcd
#
# Track frame offsets: 
#        150
#        14650
#        36809
#        56850
#        72052
#        97498
#        120083
#        133521
#
# Disc length: 1956 seconds
#
# Revision: 0
# Processed by: cddbd v1.5.2PL0 Copyright (c) Steve Scherf et al.
# Submitted via: ExactAudioCopy v0.99pb4
#
DISCID=6e07a208
DTITLE=Larry Willis - New Kind Of Soul
DYEAR=1972
DGENRE=Soul
TTITLE0=Lickin' Stick
TTITLE1=Someday Soon
TTITLE2=Funky Judge
TTITLE3=Mayibuye
TTITLE4=Consola Coa
TTITLE5=Walking Backward Down The Road
TTITLE6=Holiday In Barbados
TTITLE7=Hard To Handle
EXTD=
EXTT0=
EXTT1=
EXTT2=
EXTT3=
EXTT4=
EXTT5=
EXTT6=
EXTT7=
PLAYORDER=
